<?xml version="1.0" encoding="UTF-8" standalone="no"?>
<svg
   xmlns:dc="http://purl.org/dc/elements/1.1/"
   xmlns:cc="http://creativecommons.org/ns#"
   xmlns:rdf="http://www.w3.org/1999/02/22-rdf-syntax-ns#"
   xmlns:svg="http://www.w3.org/2000/svg"
   xmlns="http://www.w3.org/2000/svg"
   xmlns:xlink="http://www.w3.org/1999/xlink"
   xmlns:sodipodi="http://sodipodi.sourceforge.net/DTD/sodipodi-0.dtd"
   xmlns:inkscape="http://www.inkscape.org/namespaces/inkscape"
   width="1606.188"
   height="806.3175"
   viewBox="0 0 1606.188 806.3175"
   version="1.1"
   id="svg1691"
   sodipodi:docname="logo-mosaic.svg"
   inkscape:version="0.92.4 (5da689c313, 2019-01-14)">
  <metadata
     id="metadata1697">
    <rdf:RDF>
      <cc:Work
         rdf:about="">
        <dc:format>image/svg+xml</dc:format>
        <dc:type
           rdf:resource="http://purl.org/dc/dcmitype/StillImage" />
        <dc:title></dc:title>
      </cc:Work>
    </rdf:RDF>
  </metadata>
  <defs
     id="defs1695">
    <linearGradient
       inkscape:collect="always"
       id="linearGradient7905">
      <stop
         style="stop-color:#ffffff;stop-opacity:1"
         offset="0"
         id="stop7901" />
      <stop
         style="stop-color:#fbfbfb;stop-opacity:0.8"
         offset="1"
         id="stop7903" />
    </linearGradient>
    <linearGradient
       inkscape:collect="always"
       xlink:href="#linearGradient7905"
       id="linearGradient7909"
       gradientUnits="userSpaceOnUse"
       x1="22.091908"
       y1="534.51984"
       x2="385.37711"
       y2="388.76971" />
    <linearGradient
       inkscape:collect="always"
       xlink:href="#linearGradient7905"
       id="linearGradient7912"
       gradientUnits="userSpaceOnUse"
       x1="22.091908"
       y1="534.51984"
       x2="385.37711"
       y2="388.76971"
       gradientTransform="matrix(5.3754619,0,0,5.3754619,-302.22432,-1937.7083)" />
    <linearGradient
       inkscape:collect="always"
       xlink:href="#linearGradient7905"
       id="linearGradient7955"
       x1="720.72443"
       y1="-21.839779"
       x2="1240.4399"
       y2="932.75439"
       gradientUnits="userSpaceOnUse" />
  </defs>
  <sodipodi:namedview
     pagecolor="#ffffff"
     bordercolor="#666666"
     borderopacity="1"
     objecttolerance="10"
     gridtolerance="10"
     guidetolerance="10"
     inkscape:pageopacity="0"
     inkscape:pageshadow="2"
     inkscape:window-width="1858"
     inkscape:window-height="1057"
     id="namedview1693"
     showgrid="false"
     inkscape:zoom="0.70710678"
     inkscape:cx="849.00381"
     inkscape:cy="329.72293"
     inkscape:window-x="-8"
     inkscape:window-y="-8"
     inkscape:window-maximized="1"
     inkscape:current-layer="svg1691">
    <inkscape:grid
       type="xygrid"
       id="grid5450" />
  </sodipodi:namedview>
  <path
     inkscape:connector-curvature="0"
     d="m 1256.6596,805.72426 63.968,91.38285 69.881,-107.50923 z m -133.849,16.12639 63.968,91.38285 69.881,-107.50924 z m 401.5471,-48.37921 63.968,91.38285 69.881,-107.50924 z m -133.849,16.12644 63.968,91.38285 69.881,-107.50924 z m -733.21323,-10.75082 63.96799,91.38285 69.88101,-107.50924 z m -133.849,16.12639 63.96799,91.38285 69.88101,-107.50924 z m -133.84911,16.12643 63.96799,91.38286 69.88101,-107.50924 z m -133.849,16.12639 63.96799,91.38285 69.88101,-107.50924 z m 936.94314,-112.88481 63.968,91.38286 69.881,-107.50924 z m -133.849,16.12639 63.968,91.38285 69.881,-107.50924 z m -133.84898,16.12644 63.968,91.38285 69.88098,-107.50924 z m -133.849,16.12638 63.968,91.38286 69.881,-107.50924 z m 803.09408,-96.75842 63.968,91.38285 69.881,-107.50923 z m -133.849,16.12639 63.968,91.38285 69.881,-107.50924 z m -133.849,16.12644 63.968,91.38285 69.881,-107.50924 z M 81.583149,-43.598128 145.55115,47.784725 215.43215,-59.724513 Z M -52.265847,-27.471742 11.70215,63.91111 81.583154,-43.598128 Z m 535.396187,-64.505596 63.968,91.38285185 69.881,-107.50923385 z m -133.84911,16.126385 63.968,91.382853 69.881,-107.509238 z m -133.84908,16.12644 63.96802,91.382852 69.88101,-107.509238 z m -5.913,198.891983 63.96802,91.38285 69.881,-107.50924 z m -133.848998,16.12639 63.967998,91.38285 69.881,-107.50924 z M -58.17885,171.42024 5.789147,262.80309 75.670152,155.29386 Z m 803.09413,-96.758367 63.968,91.382857 69.881,-107.509243 z m -133.849,16.126386 63.968,91.382851 69.881,-107.509237 z m -133.84911,16.126381 63.968,91.38286 69.881,-107.509241 z m -133.849,16.12644 63.968,91.38286 69.881,-107.50924 z m 936.94313,-112.884804 63.968,91.382854 69.881,-107.5092393 z m -133.849,16.126386 63.968,91.382848 69.881,-107.509234 z m -133.849,16.126386 63.968,91.382852 69.881,-107.509238 z m -133.84902,16.126439 63.968,91.382853 69.88102,-107.509238 z m 669.24502,-80.632036 63.968,91.382853 69.881,-107.509238 z m -133.849,16.1263859 63.968,91.3828521 69.881,-107.509238 z M 145.55105,47.784671 209.51905,139.16752 279.40007,31.658285 Z M 11.702053,63.911057 75.67005,155.29391 145.55105,47.784671 Z M -122.14695,80.037442 -58.178952,171.42029 11.702053,63.911057 Z m 803.09413,-96.758368 63.96799,91.382853 69.88101,-107.509238 z M 547.09818,-0.59453991 611.06617,90.788312 680.94718,-16.720926 Z M 413.24907,15.531846 477.21706,106.9147 547.09807,-0.59453991 Z m -133.849,16.126439 63.96799,91.382855 69.88101,-107.50924 z m 936.94313,-112.884807 63.968,91.382852 69.881,-107.509238 z m -133.849,16.126386 63.968,91.382852 69.881,-107.509238 z m -133.84902,16.126385 63.96802,91.382853 69.881,-107.509238 z m -133.849,16.126386 63.968,91.382852 69.881,-107.509238 z m -611.18993,370.906815 63.96802,91.38285 69.881,-107.50923 z m -133.848999,16.12639 63.967999,91.38285 69.881,-107.50924 z M -64.09175,370.31228 -0.12375363,461.69513 69.757251,354.18589 Z m 803.09413,-96.75842 63.968,91.38285 69.881,-107.50924 z m -133.84905,16.12638 63.96799,91.38285 69.88101,-107.50923 z m -133.84906,16.12644 63.968,91.38285 69.881,-107.50923 z m -133.849,16.12639 63.968,91.38285 69.881,-107.50924 z m 936.94313,-112.88481 63.968,91.38285 69.881,-107.50924 z m -133.8491,16.12638 63.968,91.38286 69.881,-107.50924 z m -133.849,16.12644 63.968,91.38286 69.881,-107.50924 z m -133.84897,16.12639 63.968,91.38285 69.88097,-107.50924 z m 669.24507,-80.63198 63.968,91.38285 69.881,-107.50924 z m -133.849,16.12638 63.968,91.38286 69.881,-107.50924 z m -1268.60925,53.75478 63.968,91.38286 69.88102,-107.50924 z M 5.7891523,262.80304 69.757149,354.18589 139.63815,246.67665 Z M -128.05985,278.92948 -64.091852,370.31233 5.7891523,262.80309 Z m 803.09413,-96.75842 63.96799,91.38285 69.88101,-107.50924 z m -133.849,16.12638 63.96799,91.38286 69.88101,-107.50924 z m -133.84911,16.12644 63.96799,91.38285 69.88101,-107.50923 z m -133.849,16.12639 63.96799,91.38285 69.88101,-107.50924 z m 936.94313,-112.88481 63.968,91.38285 69.881,-107.50924 z m -133.849,16.12639 63.968,91.38285 69.881,-107.50924 z m -133.84902,16.12644 63.96802,91.38285 69.881,-107.50924 z m -133.849,16.12638 63.968,91.38285 69.881,-107.50923 z m 669.24502,-80.632035 63.968,91.382855 69.881,-107.50924 z m -133.849,16.126435 63.968,91.38286 69.881,-107.509241 z m -1152.49885,634.3044 63.96801,91.38285 69.88101,-107.50923 z m -133.849,16.12639 63.968,91.38285 69.881,-107.50924 z M -75.917551,768.09624 -11.949555,859.4791 57.93145,751.96986 Z m 803.094081,-96.75836 63.96799,91.38285 69.88101,-107.50924 z m -133.849,16.12638 63.96799,91.38285 69.88101,-107.50923 z m -133.84906,16.12639 63.968,91.38285 69.881,-107.50924 z m -133.849,16.12644 63.968,91.38285 69.881,-107.50924 z m 936.94303,-112.88481 63.968,91.38285 69.881,-107.50924 z m -133.849,16.12638 63.968,91.38286 69.881,-107.50924 z m -133.84897,16.12639 63.96797,91.38285 69.881,-107.50924 z m -133.849,16.12639 63.96799,91.38285 69.88101,-107.50924 z m 669.24507,-80.63199 63.968,91.38286 69.881,-107.50924 z m -133.849,16.12639 63.968,91.38285 69.881,-107.50924 z m -1268.60925,53.75483 63.968,91.38286 69.88101,-107.50924 z M -6.0366488,660.58706 57.931348,751.96991 127.81235,644.46067 Z m 669.2450688,-80.63198 63.968,91.38285 69.881,-107.50924 z m -133.84895,16.12638 63.968,91.38285 69.88101,-107.50923 z m -133.8491,16.12639 63.96799,91.38285 69.88101,-107.50924 z m -133.84901,16.12644 63.968,91.38285 69.88101,-107.50924 z m 936.94314,-112.88481 63.968,91.38285 69.881,-107.50924 z m -133.8491,16.12639 63.968,91.38285 69.881,-107.50924 z m -133.84898,16.12638 63.968,91.38285 69.88098,-107.50923 z m -133.849,16.12639 63.968,91.38285 69.881,-107.50924 z m 803.09408,-96.75837 63.968,91.38285 69.881,-107.50924 z m -133.849,16.12638 63.968,91.38286 69.881,-107.50924 z m -133.849,16.12639 63.968,91.38285 69.881,-107.50924 z m -1134.76005,37.6284 63.96802,91.38285 69.88101,-107.50924 z m -133.848997,16.12643 63.967997,91.38286 69.881,-107.50924 z M -70.004549,569.20426 -6.0365521,660.58711 63.844453,553.07787 Z m 803.093979,-96.75842 63.96799,91.38285 69.88101,-107.50924 z m -133.849,16.12644 63.96799,91.38285 69.88101,-107.50924 z m -133.84906,16.12638 63.968,91.38286 69.881,-107.50924 z m -133.84889,16.12639 63.96799,91.38285 69.88101,-107.50924 z m 936.94302,-112.88481 63.968,91.38285 69.881,-107.50923 z m -133.8491,16.12644 63.968,91.38285 69.881,-107.50923 z m -133.849,16.12639 63.968,91.38285 69.881,-107.50924 z m -133.84897,16.12638 63.96799,91.38286 69.88098,-107.50924 z m 669.24507,-80.63198 63.968,91.38285 69.881,-107.50924 z m -133.849,16.12639 63.968,91.38285 69.881,-107.50924 z m -1268.60915,53.75478 63.968,91.38285 69.88102,-107.50924 z M -0.12365149,461.69508 63.844345,553.07793 133.72535,445.56869 Z M -133.97265,477.82146 -70.004651,569.20431 -0.12364612,461.69508 Z m 803.09403,-96.75842 63.96799,91.38285 69.88101,-107.50924 z m -133.849,16.12644 63.96799,91.38285 69.88101,-107.50924 z m -133.84901,16.12639 63.968,91.38285 69.88101,-107.50924 z m -133.849,16.12638 63.968,91.38285 69.881,-107.50923 z m 936.94303,-112.88481 63.968,91.38286 69.881,-107.50924 z m -133.8491,16.12644 63.968,91.38286 69.881,-107.50924 z m -133.84897,16.12639 63.96797,91.38285 69.881,-107.50924 z m -133.84895,16.12638 63.96799,91.38286 69.88101,-107.50924 z m 669.24502,-80.63198 63.968,91.38285 69.881,-107.50923 z m -133.849,16.12639 63.968,91.38285 69.881,-107.50924 z"
     style="fill:url(#linearGradient7912);fill-opacity:1;fill-rule:evenodd;stroke:none;stroke-width:5.37546206;opacity:0.12"
     id="path5416-1-7-7-6-1-6-5" />
  <path
     inkscape:connector-curvature="0"
     d="m 1320.6274,897.10714 -63.9679,-91.38285 -69.8811,107.50923 z m 401.5471,-48.37921 -63.968,-91.38285 -69.881,107.50923 z m -133.849,16.12638 -63.968,-91.38285 -69.881,107.50924 z m -133.849,16.12644 -63.968,-91.38285 -69.8811,107.50924 z m -733.21316,-10.75081 -63.968,-91.38286 -69.881,107.50924 z m -133.849,16.12638 -63.968,-91.38285 -69.881,107.50924 z m -133.849,16.12644 -63.968,-91.38285 -69.881,107.50924 z m 803.09396,-96.75842 -63.968,-91.38285 -69.881,107.50924 z m -133.849,16.12639 -63.968,-91.38286 -69.88096,107.50924 z m -133.84896,16.12644 -63.96799,-91.38286 -69.88101,107.50924 z m -133.849,16.12638 -63.968,-91.38285 -69.881,107.50924 z m 803.09396,-96.75842 -63.9679,-91.38285 -69.8811,107.50923 z m -133.849,16.12638 -63.9679,-91.38285 -69.8811,107.50924 z m -133.849,16.12644 -63.968,-91.38285 -69.881,107.50924 z M 145.55116,47.78475 81.583159,-43.598102 11.702154,63.911136 Z M 11.702154,63.911136 -52.265843,-27.471717 -122.14685,80.037521 Z m 669.245006,-80.631983 -63.968,-91.382853 -69.881,107.50923895 z m -133.849,16.12638595 -63.968,-91.38285195 -69.881,107.509238 z m -133.849,16.12638605 -63.968,-91.382853 -69.881,107.509238 z m -133.849,16.126439 -63.968,-91.382852 -69.881,107.509238 z m -5.91301,198.891986 -63.968,-91.38286 -69.881,107.50924 z m -133.849,16.12638 -63.968,-91.38285 -69.8810043,107.50924 z m 669.245,-80.63198 -63.96799,-91.382852 -69.88101,107.509242 z m -133.849,16.12639 -63.96799,-91.382856 -69.88101,107.509236 z m -133.849,16.12638 -63.968,-91.38285 -69.881,107.50924 z m -133.849,16.12644 -63.968,-91.38285 -69.881,107.50924 z m 936.94305,-112.88481 -63.968,-91.382849 -69.881,107.509239 z m -133.849,16.12639 -63.968,-91.382853 -69.881,107.509243 z m -133.849,16.12639 -63.968,-91.382857 -69.88105,107.509237 z M 942.73215,149.91836 878.76416,58.535512 808.88315,166.04475 Z m 669.24505,-80.632031 -63.968,-91.382853 -69.881,107.509238 z m -133.849,16.126385 -63.968,-91.382852 -69.881,107.509238 z M 209.51904,139.16755 145.55105,47.784696 75.670043,155.29393 Z M 75.670043,155.29393 11.702046,63.911082 -58.178958,171.42032 Z m 669.245007,-80.631978 -63.968,-91.382853 -69.881,107.509238 z m -133.849,16.126385 -63.968,-91.38285181 -69.881,107.50923481 z m -133.849,16.126383 -63.968,-91.382849 -69.881,107.509239 z m -133.849,16.12644 -63.968,-91.38285 -69.88101,107.50924 z m 936.94305,-112.884805 -63.968,-91.382852 -69.881,107.509238 z m -133.849,16.126386 -63.968,-91.382852 -69.881,107.509238 z m -133.849,16.126386 -63.96804,-91.382853 -69.88101,107.509238 z m -133.84905,16.126385 -63.968,-91.382852 -69.881,107.509238 z m 535.39605,-64.5055962 -63.968,-91.3828528 -69.881,107.509238 z M 267.57425,429.44233 l -63.968,-91.38285 -69.881,107.50924 z m -133.849,16.12639 -63.968,-91.38286 -69.88100485,107.50924 z m 669.245,-80.63199 -63.96799,-91.38285 -69.88101,107.50924 z m -133.849,16.12639 -63.96799,-91.38285 -69.88101,107.50923 z m -133.849,16.12644 -63.968,-91.38285 -69.881,107.50923 z m -133.849,16.12638 -63.968,-91.38285 -69.881,107.50924 z m 936.94305,-112.8848 -63.968,-91.38286 -69.881,107.50924 z m -133.849,16.12638 -63.968,-91.38285 -69.881,107.50924 z m -133.849,16.12644 -63.968,-91.38285 -69.88105,107.50924 z M 936.81925,348.81035 872.85126,257.4275 802.97025,364.93673 Z m 669.24505,-80.63198 -63.968,-91.38286 -69.881,107.50924 z m -133.849,16.12638 -63.968,-91.38285 -69.881,107.50924 z M 203.60614,338.05953 139.63815,246.67668 69.757142,354.18592 Z M 69.757142,354.18592 5.7891457,262.80306 -64.091859,370.3123 Z m 669.245008,-80.63199 -63.968,-91.38285 -69.881,107.50924 z m -133.849,16.12639 -63.968,-91.38285 -69.881,107.50924 z m -133.849,16.12644 -63.968,-91.38285 -69.88101,107.50924 z m -133.84901,16.12639 -63.96799,-91.38286 -69.88101,107.50924 z m 936.94306,-112.88481 -63.968,-91.38285 -69.881,107.50923 z m -133.849,16.12638 -63.968,-91.38285 -69.881,107.50924 z m -133.849,16.12644 -63.96805,-91.38285 -69.881,107.50924 z m -133.84905,16.12639 -63.968,-91.38285 -69.881,107.50923 z m 803.09405,-96.75842 -63.968,-91.382855 -69.881,107.509235 z m -133.849,16.12638 -63.968,-91.382849 -69.881,107.509239 z m -133.849,16.12644 -63.968,-91.38285 -69.881,107.50924 z m -1152.49875,634.3044 -63.968,-91.38285 -69.881,107.50923 z m -133.849,16.12638 -63.968001,-91.38285 -69.881005,107.50924 z m 669.245,-80.63198 -63.96799,-91.38285 -69.88101,107.50924 z m -133.849,16.12639 -63.968,-91.38285 -69.881,107.50923 z m -133.849,16.12638 -63.968,-91.38285 -69.881,107.50924 z m -133.849,16.12644 -63.968,-91.38285 -69.881,107.50924 z m 936.94305,-112.8848 -63.968,-91.38286 -69.881,107.50924 z m -133.849,16.12638 -63.968,-91.38285 -69.881,107.50924 z m -133.849,16.12639 -63.96804,-91.38285 -69.88101,107.50923 z M 924.99345,746.59431 861.02546,655.21146 791.14445,762.7207 Z m 803.09405,-96.75836 -63.968,-91.38286 -69.881,107.50924 z m -133.849,16.12638 -63.968,-91.38285 -69.881,107.50924 z m -133.849,16.12639 -63.968,-91.38286 -69.881,107.50924 z M 191.78034,735.84355 127.81235,644.4607 57.931341,751.96994 Z M 57.931341,751.96994 -6.0366554,660.58708 -75.91766,768.09632 Z m 669.245009,-80.63199 -63.968,-91.38285 -69.881,107.50924 z m -133.849,16.12639 -63.968,-91.38285 -69.881,107.50924 z m -133.849,16.12639 -63.968,-91.38286 -69.88101,107.50924 z m -133.84901,16.12643 -63.96799,-91.38285 -69.88101,107.50924 z m 936.94306,-112.8848 -63.968,-91.38285 -69.881,107.50923 z m -133.849,16.12638 -63.968,-91.38285 -69.88105,107.50924 z m -133.84905,16.12639 -63.968,-91.38285 -69.881,107.50923 z m -133.849,16.12638 -63.968,-91.38285 -69.881,107.50924 z m 803.09405,-96.75836 -63.968,-91.38286 -69.881,107.50924 z m -133.849,16.12638 -63.968,-91.38285 -69.881,107.50924 z m -133.849,16.12639 -63.968,-91.38285 -69.881,107.50923 z M 261.66145,628.33431 197.69346,536.95146 127.81245,644.4607 Z M 127.81245,644.46075 63.844457,553.0779 -6.0365479,660.58714 Z m 669.24501,-80.63203 -63.968,-91.38286 -69.881,107.50924 z m -133.849,16.12644 -63.968,-91.38286 -69.881,107.50924 z m -133.849,16.12638 -63.968,-91.38285 -69.881,107.50924 z m -133.849,16.12639 -63.968,-91.38286 -69.88101,107.50924 z m 936.94304,-112.88481 -63.968,-91.38285 -69.881,107.50924 z m -133.849,16.12644 -63.968,-91.38285 -69.881,107.50923 z m -133.849,16.12638 -63.968,-91.38285 -69.88104,107.50924 z m -133.84904,16.12639 -63.968,-91.38285 -69.881,107.50924 z m 803.09404,-96.75837 -63.968,-91.38285 -69.881,107.50924 z m -133.849,16.12639 -63.968,-91.38285 -69.881,107.50923 z m -133.849,16.12638 -63.968,-91.38285 -69.881,107.50924 z M 197.69335,536.95151 133.72535,445.56866 63.844349,553.0779 Z M 63.844349,553.07795 -0.12364734,461.6951 -70.004652,569.20434 Z M 733.08936,472.44592 669.12136,381.06307 599.24035,488.5723 Z M 599.24035,488.57236 535.27236,397.1895 465.39135,504.69874 Z m -133.849,16.12638 -63.96799,-91.38285 -69.88101,107.50924 z m -133.849,16.12639 -63.96799,-91.38285 -69.88101,107.50923 z m 936.94305,-112.88481 -63.968,-91.38285 -69.881,107.50924 z m -133.849,16.12644 -63.968,-91.38285 -69.881,107.50924 z m -133.849,16.12639 -63.96804,-91.38286 -69.881,107.50924 z m -133.84904,16.12638 -63.968,-91.38285 -69.881,107.50924 z m 803.09404,-96.75837 -63.968,-91.38285 -69.881,107.50924 z m -133.849,16.12639 -63.968,-91.38285 -69.881,107.50924 z m -133.849,16.12639 -63.968,-91.38286 -69.881,107.50924 z"
     style="opacity:0.16;fill:url(#linearGradient7955);fill-opacity:1;fill-rule:evenodd;stroke:none;stroke-width:5.37546206"
     id="path5416-1-2-3-9-3-8-1-8" />
</svg>
