<svg xmlns:dc="http://purl.org/dc/elements/1.1/" xmlns:cc="http://creativecommons.org/ns#" xmlns:rdf="http://www.w3.org/1999/02/22-rdf-syntax-ns#" xmlns:svg="http://www.w3.org/2000/svg" xmlns="http://www.w3.org/2000/svg" xmlns:sodipodi="http://sodipodi.sourceforge.net/DTD/sodipodi-0.dtd" xmlns:inkscape="http://www.inkscape.org/namespaces/inkscape" width="22.5" height="18" viewBox="0 0 22.500001 18"><g transform="translate(-409.56839,-425.80193)"><path style="fill:#000000;fill-opacity:1;fill-rule:evenodd;stroke:none;stroke-width:1;stroke-linecap:butt;stroke-linejoin:miter;stroke-miterlimit:4;stroke-dasharray:none;stroke-opacity:1" d="m 420.81839,425.80193 c -2.03626,1.1817 -6.77883,1.31063 -10.16367,0.47327 -0.0394,10.87542 10.16367,17.52673 10.16367,17.52673 0,0 10.2031,-6.65131 10.16368,-17.52673 -3.46678,0.83178 -8.12747,0.70843 -10.16368,-0.47327 z m -7.85302,3.26195 2.33133,0 0,0.77155 -0.48599,0.0874 1.13026,3.8267 0.0795,0.35077 0.0262,0 0.074,-0.34203 1.13584,-3.83544 -0.48281,-0.0874 0,-0.77155 2.33212,0 0,0.77155 -0.53451,0.07 -1.88034,5.53999 -1.3148,0 -1.8851,-5.53999 -0.52577,-0.07 0,-0.77155 z m 6.50879,0 2.64313,0 0,0.77155 -0.68405,0.13124 0,4.58074 0.68405,0.13123 0,0.76677 -2.64313,0 0,-0.76677 0.68405,-0.13123 0,-4.58074 -0.68405,-0.13124 0,-0.77155 z m 3.3224,0 4.58471,0 0,0.6403 -3.12514,4.7597 2.22236,0 0.10499,-0.77153 0.97278,0 -0.0962,1.75306 -4.76447,0 0,-0.66575 3.11162,-4.72948 -2.02907,0 -0.10103,0.77155 -0.97675,0 0.0962,-1.75785 z" /></g></svg>